<svg style="display: none">
  <symbol id="thermometer" viewBox="0 0 25 25" fill="none" xmlns="http://www.w3.org/2000/svg">
    <g clip-path="url(#clip0_1_3306)">
      <path d="M8.33325 5.20833C8.33325 4.10326 8.77224 3.04345 9.55364 2.26205C10.335 1.48065 11.3949 1.04166 12.4999 1.04166C13.605 1.04166 14.6648 1.48065 15.4462 2.26205C16.2276 3.04345 16.6666 4.10326 16.6666 5.20833V10.6823C17.9405 11.5693 18.8981 12.8398 19.4 14.3088C19.9019 15.7778 19.9218 17.3686 19.457 18.8497C18.9921 20.3309 18.0667 21.625 16.8154 22.5437C15.5641 23.4624 14.0523 23.9579 12.4999 23.9579C10.9476 23.9579 9.43572 23.4624 8.18444 22.5437C6.93315 21.625 6.00773 20.3309 5.54287 18.8497C5.078 17.3686 5.09796 15.7778 5.59984 14.3088C6.10171 12.8398 7.05931 11.5693 8.33325 10.6823V5.20833ZM9.52492 12.3906C8.61468 13.0241 7.93038 13.9315 7.57164 14.9808C7.2129 16.0301 7.19844 17.1665 7.53038 18.2247C7.86231 19.2828 8.52331 20.2073 9.41714 20.8637C10.311 21.5201 11.391 21.874 12.4999 21.874C13.6089 21.874 14.6889 21.5201 15.5827 20.8637C16.4765 20.2073 17.1375 19.2828 17.4695 18.2247C17.8014 17.1665 17.7869 16.0301 17.4282 14.9808C17.0695 13.9315 16.3852 13.0241 15.4749 12.3906L14.5833 11.7687V5.20833C14.5833 4.6558 14.3638 4.12589 13.9731 3.73519C13.5824 3.34449 13.0525 3.125 12.4999 3.125C11.9474 3.125 11.4175 3.34449 11.0268 3.73519C10.6361 4.12589 10.4166 4.6558 10.4166 5.20833V11.7687L9.52492 12.3906ZM11.4583 12.6312V5.20833H13.5416V12.6312C14.5213 12.8872 15.3743 13.491 15.9414 14.3299C16.5085 15.1687 16.7509 16.1853 16.6233 17.1898C16.4957 18.1943 16.0069 19.118 15.2481 19.7885C14.4893 20.459 13.5125 20.8304 12.4999 20.8333C11.4851 20.8343 10.5047 20.4649 9.74291 19.7944C8.9811 19.1239 8.4902 18.1984 8.36234 17.1916C8.23447 16.1848 8.47845 15.166 9.04847 14.3264C9.61849 13.4867 10.4754 12.884 11.4583 12.6312ZM12.4999 18.75C13.0525 18.75 13.5824 18.5305 13.9731 18.1398C14.3638 17.7491 14.5833 17.2192 14.5833 16.6667C14.5833 16.1141 14.3638 15.5842 13.9731 15.1935C13.5824 14.8028 13.0525 14.5833 12.4999 14.5833C11.9474 14.5833 11.4175 14.8028 11.0268 15.1935C10.6361 15.5842 10.4166 16.1141 10.4166 16.6667C10.4166 17.2192 10.6361 17.7491 11.0268 18.1398C11.4175 18.5305 11.9474 18.75 12.4999 18.75Z" fill="white"/>
    </g>
    <defs>
      <clipPath id="clip0_1_3306">
        <rect width="25" height="25" fill="white"/>
      </clipPath>
    </defs>
  </symbol>

  <symbol id="wind" viewBox="0 0 25 25" fill="none" xmlns="http://www.w3.org/2000/svg">
    <path d="M11.7188 10.1562C13.8761 10.1562 15.625 8.40736 15.625 6.25C15.625 4.09264 13.8761 2.34375 11.7188 2.34375C9.56139 2.34375 7.8125 4.09264 7.8125 6.25" stroke="white" stroke-width="2" stroke-linecap="round"/>
    <path d="M3.90625 10.1562H11.7188" stroke="white" stroke-width="2" stroke-linecap="round"/>
    <path d="M4.6875 16.4062H15.625" stroke="white" stroke-width="2" stroke-linecap="round"/>
    <path d="M13.2812 18.75C13.2812 20.0444 14.3306 21.0938 15.625 21.0938C16.9194 21.0938 17.9688 20.0444 17.9688 18.75C17.9688 17.4556 16.9194 16.4062 15.625 16.4062" stroke="white" stroke-width="2" stroke-linecap="round"/>
    <path d="M18.75 13.2812C20.9074 13.2812 22.6562 11.5324 22.6562 9.375C22.6562 7.21764 20.9074 5.46875 18.75 5.46875C18.5185 5.46875 18.2917 5.48889 18.0713 5.5275" stroke="white" stroke-width="2" stroke-linecap="round"/>
    <path d="M2.34375 13.2812H18.75" stroke="white" stroke-width="2" stroke-linecap="round"/>
  </symbol>

  <symbol id="settings" viewBox="0 0 50 50" fill="none" xmlns="http://www.w3.org/2000/svg">
    <path d="M18.2292 25C18.2292 21.2606 21.2606 18.2292 25 18.2292C28.7394 18.2292 31.7708 21.2606 31.7708 25C31.7708 28.7394 28.7394 31.7708 25 31.7708C21.2606 31.7708 18.2292 28.7394 18.2292 25Z" fill="white"/>
    <path fill-rule="evenodd" clip-rule="evenodd" d="M23.8765 3.83023C24.4907 3.19473 25.5093 3.19473 26.1235 3.83023L31.4825 9.375H39.0625C39.9255 9.375 40.625 10.0746 40.625 10.9375V18.5175L46.1698 23.8765C46.8053 24.4907 46.8053 25.5093 46.1698 26.1235L40.625 31.4825V39.0625C40.625 39.9254 39.9255 40.625 39.0625 40.625H31.4825L26.1235 46.1698C25.5093 46.8053 24.4907 46.8053 23.8765 46.1698L18.5175 40.625H10.9375C10.0746 40.625 9.37503 39.9254 9.37503 39.0625V31.4825L3.83026 26.1235C3.19476 25.5093 3.19476 24.4907 3.83026 23.8765L9.37503 18.5175V10.9375C9.37503 10.0746 10.0746 9.375 10.9375 9.375H18.5175L23.8765 3.83023ZM25 15.1042C19.5347 15.1042 15.1042 19.5347 15.1042 25C15.1042 30.4653 19.5347 34.8958 25 34.8958C30.4653 34.8958 34.8958 30.4653 34.8958 25C34.8958 19.5347 30.4653 15.1042 25 15.1042Z" fill="white"/>
  </symbol>

  <symbol id="location" viewBox="0 0 50 50" fill="none" xmlns="http://www.w3.org/2000/svg">
    <path d="M25 4C16.7179 4 10 10.5835 10 18.7C10 29.725 25 46 25 46C25 46 40 29.725 40 18.7C40 10.5835 33.2821 4 25 4ZM25 23.95C22.0429 23.95 19.6429 21.598 19.6429 18.7C19.6429 15.802 22.0429 13.45 25 13.45C27.9571 13.45 30.3571 15.802 30.3571 18.7C30.3571 21.598 27.9571 23.95 25 23.95Z" fill="white"/>
  </symbol>

  <symbol id="heart" viewBox="0 0 30 30" fill="currentColor" xmlns="http://www.w3.org/2000/svg">
    <path d="M10.5 6.5625C7.02393 6.5625 4.0625 9.16163 4.0625 12.5372C4.0625 14.8659 5.15293 16.8265 6.59811 18.4505C8.03833 20.069 9.89643 21.4275 11.5762 22.5645L14.4745 24.5264C14.7919 24.7412 15.2081 24.7412 15.5255 24.5264L18.4238 22.5646C20.1036 21.4275 21.9617 20.069 23.4019 18.4505C24.8471 16.8265 25.9375 14.8659 25.9375 12.5372C25.9375 9.16163 22.9761 6.5625 19.5 6.5625C17.7082 6.5625 16.1314 7.40267 15 8.48979C13.8686 7.40267 12.2918 6.5625 10.5 6.5625Z"/>
  </symbol>

  <symbol id="explore" viewBox="0 0 50 50" fill="none" xmlns="http://www.w3.org/2000/svg">
    <path fill-rule="evenodd" clip-rule="evenodd" d="M6.77087 25C6.77087 14.9323 14.9323 6.77083 25 6.77083C35.0677 6.77083 43.2292 14.9323 43.2292 25C43.2292 35.0677 35.0677 43.2292 25 43.2292C14.9323 43.2292 6.77087 35.0677 6.77087 25ZM22.6038 19.3932C20.6589 20.9933 19.3595 23.2439 18.9463 25.7283L17.5781 33.9535C17.2623 35.8524 19.4703 37.1271 20.9568 35.9041L27.396 30.6067C29.3409 29.0066 30.6403 26.7561 31.0535 24.2717L32.4217 16.0465C32.7375 14.1476 30.5296 12.8728 29.043 14.0958L22.6038 19.3932Z" fill="white"/>
    <path d="M21.875 25C21.875 23.2741 23.2742 21.875 25 21.875C26.7259 21.875 28.125 23.2741 28.125 25C28.125 26.7259 26.7259 28.125 25 28.125C23.2742 28.125 21.875 26.7259 21.875 25Z" fill="white"/>
  </symbol>

  <symbol id="clock" viewBox="0 0 21 21" fill="none" xmlns="http://www.w3.org/2000/svg">
    <path fill-rule="evenodd" clip-rule="evenodd" d="M17.6777 10.8372C17.6777 6.86151 14.4548 3.63857 10.4791 3.63857C6.50339 3.63857 3.28045 6.86151 3.28045 10.8372C3.28045 14.8129 6.50339 18.0359 10.4791 18.0359C14.4548 18.0359 17.6777 14.8129 17.6777 10.8372ZM9.84392 6.60272C9.84392 6.25192 10.1283 5.96754 10.4791 5.96754C10.8299 5.96754 11.1143 6.25192 11.1143 6.60272V10.8372C11.1143 11.0562 11.0014 11.2598 10.8157 11.3758L8.27503 12.9638C7.97756 13.1497 7.58569 13.0593 7.39977 12.7618C7.21384 12.4643 7.30428 12.0724 7.60175 11.8865L9.84392 10.4852V6.60272Z" fill="white"/>
  </symbol>

  <symbol id="blob" viewBox="0 0 25 25" fill="none" xmlns="http://www.w3.org/2000/svg">
    <path d="M13.1772 2.33333L12.5001 1.75L11.823 2.33333C11.4584 2.60417 4.16675 8.95833 4.16675 14.5833C4.16675 16.7935 5.04472 18.9131 6.60752 20.4759C8.17033 22.0387 10.2899 22.9167 12.5001 22.9167C14.7102 22.9167 16.8298 22.0387 18.3926 20.4759C19.9554 18.9131 20.8334 16.7935 20.8334 14.5833C20.8334 8.95833 13.5417 2.60417 13.1772 2.33333ZM14.823 19.2396L13.8959 17.375C14.4148 17.116 14.8514 16.7176 15.1567 16.2246C15.4621 15.7316 15.6243 15.1633 15.6251 14.5833H17.7084C17.7074 15.5509 17.4369 16.499 16.9273 17.3214C16.4176 18.1439 15.689 18.8081 14.823 19.2396Z" fill="white"/>
  </symbol>

  <symbol id="arrow" viewBox="0 0 11 21" fill="none" xmlns="http://www.w3.org/2000/svg">
    <path d="M1 20L10 10.5L1 1" stroke="white" stroke-width="2" stroke-linecap="round" stroke-linejoin="round"/>
  </symbol>

  <symbol id="sunny" viewBox="0 0 25 25" fill="none" xmlns="http://www.w3.org/2000/svg">
    <path d="M12.4999 1.30209C12.9314 1.30209 13.2812 1.65187 13.2812 2.08334V3.12501C13.2812 3.55648 12.9314 3.90626 12.4999 3.90626C12.0684 3.90626 11.7187 3.55648 11.7187 3.12501V2.08334C11.7187 1.65187 12.0684 1.30209 12.4999 1.30209Z" fill="white"/>
    <path d="M12.4999 6.51043C9.19196 6.51043 6.51034 9.19206 6.51034 12.5C6.51034 15.808 9.19196 18.4896 12.4999 18.4896C15.8079 18.4896 18.4895 15.808 18.4895 12.5C18.4895 9.19206 15.8079 6.51043 12.4999 6.51043Z" fill="white"/>
    <path d="M5.68667 4.58191C5.38157 4.27681 4.88691 4.27681 4.58181 4.58191C4.27671 4.88701 4.27671 5.38167 4.58181 5.68677L5.31838 6.42334C5.62348 6.72843 6.11814 6.72843 6.42323 6.42334C6.72833 6.11824 6.72833 5.62358 6.42323 5.31848L5.68667 4.58191Z" fill="white"/>
    <path d="M23.6978 12.5C23.6978 12.9315 23.3481 13.2813 22.9166 13.2813H21.8749C21.4434 13.2813 21.0937 12.9315 21.0937 12.5C21.0937 12.0685 21.4434 11.7188 21.8749 11.7188H22.9166C23.3481 11.7188 23.6978 12.0685 23.6978 12.5Z" fill="white"/>
    <path d="M20.418 5.68676C20.7231 5.38166 20.7231 4.887 20.418 4.5819C20.1129 4.27681 19.6183 4.27681 19.3132 4.5819L18.5766 5.31847C18.2715 5.62357 18.2715 6.11823 18.5766 6.42333C18.8817 6.72842 19.3764 6.72842 19.6814 6.42333L20.418 5.68676Z" fill="white"/>
    <path d="M12.4999 21.0938C12.9314 21.0938 13.2812 21.4435 13.2812 21.875V22.9167C13.2812 23.3482 12.9314 23.6979 12.4999 23.6979C12.0684 23.6979 11.7187 23.3482 11.7187 22.9167V21.875C11.7187 21.4435 12.0684 21.0938 12.4999 21.0938Z" fill="white"/>
    <path d="M19.6815 18.5767C19.3764 18.2716 18.8818 18.2716 18.5767 18.5767C18.2716 18.8818 18.2716 19.3765 18.5767 19.6816L19.3132 20.4181C19.6183 20.7232 20.113 20.7232 20.4181 20.4181C20.7232 20.113 20.7232 19.6184 20.4181 19.3133L19.6815 18.5767Z" fill="white"/>
    <path d="M3.90617 12.5C3.90617 12.9315 3.55639 13.2813 3.12492 13.2813H2.08325C1.65178 13.2813 1.302 12.9315 1.302 12.5C1.302 12.0685 1.65178 11.7188 2.08325 11.7188H3.12492C3.55639 11.7188 3.90617 12.0685 3.90617 12.5Z" fill="white"/>
    <path d="M6.42317 19.6815C6.72826 19.3764 6.72826 18.8818 6.42317 18.5767C6.11807 18.2716 5.62341 18.2716 5.31831 18.5767L4.58174 19.3133C4.27664 19.6184 4.27664 20.113 4.58174 20.4181C4.88684 20.7232 5.3815 20.7232 5.6866 20.4181L6.42317 19.6815Z" fill="white"/>
  </symbol>

  <symbol id="clear" viewBox="0 0 25 25" fill="none" xmlns="http://www.w3.org/2000/svg">
    <path d="M18.2306 4.47167L15.641 6.45738L16.5724 9.58947L13.8805 7.73683L11.1885 9.58947L12.1199 6.45738L9.53032 4.47167L12.7955 4.37955L13.8805 1.30887L14.9654 4.37955L18.2306 4.47167ZM21.813 11.5445L20.1344 12.8239L20.7383 14.8506L18.9983 13.653L17.2582 14.8506L17.8621 12.8239L16.1835 11.5445L18.292 11.4933L18.9983 9.49735L19.7045 11.4933L21.813 11.5445ZM19.4793 16.6111C20.3289 16.5292 21.2399 17.737 20.6974 18.5047C20.3698 18.9653 20.0218 19.3952 19.5919 19.8046C15.5898 23.8272 9.11066 23.8272 5.11878 19.8046C1.11666 15.8127 1.11666 9.32334 5.11878 5.33146C5.5282 4.92204 5.9581 4.55355 6.4187 4.22601C7.18637 3.68353 8.39417 4.5945 8.31229 5.44405C8.03592 8.37143 9.01854 11.4114 11.2704 13.653C13.512 15.9048 16.5417 16.8875 19.4793 16.6111Z" fill="white"/>
  </symbol>

  <symbol id="heavy-rain" viewBox="0 0 26 26" fill="none" xmlns="http://www.w3.org/2000/svg">
    <path d="M5.88532 18.4628H19.3215C21.6047 18.4628 23.4557 16.6118 23.4557 14.3286C23.4557 12.3895 22.1207 10.7622 20.3196 10.3157C20.343 10.1062 20.355 9.89328 20.355 9.67757C20.355 6.53809 17.81 3.99304 14.6705 3.99304C12.0665 3.99304 9.8715 5.74391 9.19844 8.13261C9.12807 8.12905 9.05723 8.12725 8.98598 8.12725C6.70272 8.12725 4.85177 9.97819 4.85177 12.2615C4.85177 12.3201 4.85299 12.3785 4.85541 12.4366C3.64922 12.8612 2.78467 14.0107 2.78467 15.3621C2.78467 17.0746 4.17288 18.4628 5.88532 18.4628Z" fill="white"/>
    <path d="M8.38092 19.4963C8.11831 19.4963 7.87824 19.6447 7.76079 19.8796L6.38702 22.6271C6.15652 23.0881 6.49174 23.6305 7.00715 23.6305C7.26976 23.6305 7.50984 23.4821 7.62728 23.2473L9.00106 20.4997C9.23155 20.0387 8.89633 19.4963 8.38092 19.4963Z" fill="white"/>
    <path d="M11.4816 19.4963C11.997 19.4963 12.3322 20.0387 12.1017 20.4997L10.7279 23.2473C10.6105 23.4821 10.3704 23.6305 10.1078 23.6305C9.5924 23.6305 9.25718 23.0881 9.48767 22.6271L10.8614 19.8796C10.9789 19.6447 11.219 19.4963 11.4816 19.4963Z" fill="white" />
    <path d="M17.6829 19.4963C18.1983 19.4963 18.5335 20.0387 18.303 20.4997L16.9292 23.2473C16.8118 23.4821 16.5717 23.6305 16.3091 23.6305C15.7937 23.6305 15.4585 23.0881 15.689 22.6271L17.0628 19.8796C17.1802 19.6447 17.4203 19.4963 17.6829 19.4963Z" fill="white" />
    <path d="M14.5822 19.4963C15.0976 19.4963 15.4329 20.0387 15.2024 20.4997L13.8286 23.2473C13.7111 23.4821 13.4711 23.6305 13.2085 23.6305C12.6931 23.6305 12.3578 23.0881 12.5883 22.6271L13.9621 19.8796C14.0795 19.6447 14.3196 19.4963 14.5822 19.4963Z" fill="white" />
  </symbol>

  <symbol id="partly-cloudy-day" viewBox="0 0 32 31" fill="none" xmlns="http://www.w3.org/2000/svg">
    <g clip-path="url(#clip0_1_3265)">
      <path d="M5.09343 5.6612L4.75752 5.33489C4.42162 5.00859 3.879 5.01695 3.55171 5.33489L3.5431 5.34326C3.20719 5.66957 3.20719 6.19668 3.5431 6.51462L3.879 6.84093C4.21491 7.16723 4.74891 7.16723 5.08481 6.84093L5.09343 6.83256C5.42933 6.51462 5.42933 5.97914 5.09343 5.6612Z" fill="white"/>
      <path d="M2.4751 10.9825H1.59658C1.12287 10.9825 0.743896 11.3507 0.743896 11.8108V11.8192C0.743896 12.2794 1.12287 12.6475 1.59658 12.6475H2.46648C2.94881 12.6559 3.32778 12.2877 3.32778 11.8276V11.8192C3.32778 11.3507 2.94881 10.9825 2.4751 10.9825Z" fill="white"/>
      <path d="M10.2267 2.6575H10.2181C9.73579 2.6575 9.35682 3.02565 9.35682 3.48582V4.28904C9.35682 4.74922 9.73579 5.11736 10.2095 5.11736H10.2181C10.7004 5.12572 11.0794 4.75758 11.0794 4.29741V3.48582C11.0794 3.02565 10.7004 2.6575 10.2267 2.6575Z" fill="white"/>
      <path d="M16.8931 5.34326C16.5572 5.01695 16.0146 5.01695 15.6787 5.33489L15.3428 5.6612C15.0069 5.98751 15.0069 6.51462 15.3428 6.83256L15.3514 6.84093C15.6873 7.16723 16.2299 7.16723 16.5572 6.84093L16.8931 6.51462C17.229 6.18831 17.229 5.66957 16.8931 5.34326Z" fill="white"/>
      <path d="M10.2181 6.79909C7.36724 6.79909 5.05036 9.04977 5.05036 11.8192C5.05036 13.6143 6.02383 15.1915 7.4852 16.0791C8.18447 14.1112 10.108 12.6977 12.3713 12.6977C12.4604 12.6977 12.549 12.6999 12.6369 12.7042C13.01 11.4179 13.7573 10.284 14.7573 9.42017C13.8802 7.85948 12.175 6.79909 10.2181 6.79909Z" fill="white"/>
      <path d="M3.5431 18.2951C3.879 18.6214 4.42162 18.6214 4.75752 18.2951L5.09343 17.9688C5.42933 17.6425 5.42072 17.1154 5.09343 16.7975L5.08481 16.7891C4.74891 16.4628 4.20629 16.4628 3.87039 16.7891L3.53449 17.1154C3.20719 17.4501 3.20719 17.9688 3.5431 18.2951Z" fill="white"/>
      <path d="M9.78747 26.503H26.5827C29.4368 26.503 31.7504 24.2554 31.7504 21.4829C31.7504 19.1283 30.0817 17.1523 27.8304 16.6101C27.8596 16.3557 27.8746 16.0972 27.8746 15.8353C27.8746 12.0231 24.6933 8.93264 20.769 8.93264C17.514 8.93264 14.7702 11.0587 13.9289 13.9593C13.8409 13.9549 13.7524 13.9527 13.6633 13.9527C10.8092 13.9527 8.49553 16.2003 8.49553 18.9729C8.49553 19.0441 8.49706 19.115 8.50009 19.1855C6.99235 19.7011 5.91165 21.0969 5.91165 22.7379C5.91165 24.8173 7.64692 26.503 9.78747 26.503Z" fill="white"/>
    </g>
    <defs>
      <clipPath id="clip0_1_3265">
        <rect width="31.0065" height="30.1206" fill="white" transform="translate(0.743896 0.147469)"/>
      </clipPath>
    </defs>
  </symbol>

  <symbol id="partly-cloudy-night" viewBox="0 0 26 26" fill="none" xmlns="http://www.w3.org/2000/svg">
    <g clip-path="url(#clip0_1_3223)">
      <path d="M5.92231 15.4483C5.70256 15.5257 5.49426 15.6273 5.30063 15.75C4.43873 15.3934 3.63143 14.8629 2.93176 14.1584C0.0906194 11.3269 0.0906194 6.72378 2.93176 3.89223C3.22241 3.60181 3.52759 3.34044 3.85458 3.1081C4.39955 2.7233 5.25698 3.36948 5.19885 3.97209C5.00266 6.04856 5.70023 8.20489 7.29882 9.79492C7.90895 10.4073 8.60132 10.8874 9.34072 11.2355C7.39935 11.5562 5.9187 13.2426 5.9187 15.2748C5.9187 15.333 5.91991 15.3908 5.92231 15.4483Z" fill="white"/>
      <path d="M11.5823 6.53538L12.1215 8.32311C12.0683 8.3658 12.016 8.40942 11.9644 8.45397L10.3929 7.38764L8.57426 8.62171L9.20353 6.53538L7.45402 5.21268L9.65992 5.15132L10.3929 3.1059L11.1259 5.15132L13.3318 5.21268L11.5823 6.53538Z" fill="white"/>
      <path d="M17.7999 5.32177L18.934 4.46952L17.5095 4.43543L17.0324 3.10591L16.5552 4.43543L15.1307 4.46952L16.2648 5.32177L15.8568 6.67175L17.0324 5.87404L18.2079 6.67175L17.7999 5.32177Z" fill="white"/>
      <path d="M7.96582 22.4398H21.2721C23.5333 22.4398 25.3663 20.6067 25.3663 18.3455C25.3663 16.4252 24.0442 14.8136 22.2606 14.3714C22.2838 14.164 22.2957 13.9531 22.2957 13.7395C22.2957 10.6304 19.7752 8.10993 16.6661 8.10993C14.0873 8.10993 11.9135 9.84387 11.2469 12.2095C11.1772 12.206 11.1071 12.2042 11.0365 12.2042C8.77532 12.2042 6.94226 14.0372 6.94226 16.2984C6.94226 16.3565 6.94347 16.4143 6.94587 16.4719C5.75134 16.8924 4.89514 18.0307 4.89514 19.3691C4.89514 21.065 6.26993 22.4398 7.96582 22.4398Z" fill="white"/>
    </g>
    <defs>
      <clipPath id="clip0_1_3223">
        <rect width="24.5654" height="24.5654" fill="white" transform="translate(0.800903 0.945007)"/>
      </clipPath>
    </defs>
  </symbol>

  <symbol id="rain-day" viewBox="0 0 50 50" fill="none" xmlns="http://www.w3.org/2000/svg">
    <path d="M6.47222 4.44445L7.01389 4.98611C7.55556 5.51389 7.55556 6.40278 7.01389 6.93056L7 6.94445C6.45833 7.48611 5.59722 7.48611 5.05556 6.94445L4.51389 6.40278C3.97222 5.875 3.97222 5 4.51389 4.45833L4.52778 4.44445C5.05556 3.91667 5.93056 3.90278 6.47222 4.44445Z" fill="white"/>
    <path d="M1.375 13.8194H2.79167C3.55556 13.8194 4.16667 14.4306 4.16667 15.2083V15.2222C4.16667 15.9861 3.55556 16.5972 2.77778 16.5833H1.375C0.611111 16.5833 0 15.9722 0 15.2083V15.1944C0 14.4306 0.611111 13.8194 1.375 13.8194Z" fill="white"/>
    <path d="M15.2778 0H15.2917C16.0556 0 16.6667 0.611111 16.6667 1.375V2.72222C16.6667 3.48611 16.0556 4.09722 15.2778 4.08333H15.2639C14.5 4.08333 13.8889 3.47222 13.8889 2.70833V1.375C13.8889 0.611111 14.5 0 15.2778 0Z" fill="white"/>
    <path d="M24.0833 4.44445C24.625 3.91667 25.5 3.91667 26.0417 4.45833C26.5833 5 26.5833 5.86111 26.0417 6.40278L25.5 6.94445C24.9722 7.48611 24.0972 7.48611 23.5556 6.94445L23.5417 6.93056C23 6.40278 23 5.52778 23.5417 4.98611L24.0833 4.44445Z" fill="white"/>
    <path d="M6.94444 15.2083C6.94444 10.6111 10.6806 6.875 15.2778 6.875C18.4333 6.875 21.1831 8.63524 22.5975 11.226C20.9849 12.6599 19.7799 14.5423 19.1783 16.6775C19.0364 16.6703 18.8936 16.6667 18.75 16.6667C15.1002 16.6667 11.9984 19.0131 10.8708 22.2797C8.51423 20.8064 6.94444 18.1883 6.94444 15.2083Z" fill="white"/>
    <path d="M6.47222 25.9583C5.93056 26.5 5.05556 26.5 4.51389 25.9583C3.97222 25.4167 3.97222 24.5556 4.5 24L5.04167 23.4583C5.58333 22.9167 6.45833 22.9167 7 23.4583L7.01389 23.4722C7.54167 24 7.55556 24.875 7.01389 25.4167L6.47222 25.9583Z" fill="white"/>
    <path d="M41.6667 39.5833H14.5833C11.1316 39.5833 8.33333 36.7851 8.33333 33.3333C8.33333 30.6093 10.076 28.2923 12.5073 27.4364C12.5025 27.3193 12.5 27.2016 12.5 27.0833C12.5 22.481 16.231 18.75 20.8333 18.75C20.977 18.75 21.1197 18.7536 21.2616 18.7608C22.6183 13.9459 27.0428 10.4167 32.2917 10.4167C38.6199 10.4167 43.75 15.5467 43.75 21.875C43.75 22.3098 43.7258 22.739 43.6786 23.1612C47.309 24.0612 50 27.3413 50 31.25C50 35.8524 46.269 39.5833 41.6667 39.5833Z" fill="white"/>
    <path d="M20.8029 47.9775L23.5721 42.4392C23.8088 41.9657 24.2927 41.6667 24.8221 41.6667C25.861 41.6667 26.5367 42.76 26.0721 43.6892L23.3029 49.2275C23.0662 49.7009 22.5823 50 22.0529 50C21.014 50 20.3383 48.9067 20.8029 47.9775Z" fill="white"/>
    <path d="M27.0529 47.9775L29.8221 42.4392C30.0588 41.9657 30.5427 41.6667 31.0721 41.6667C32.111 41.6667 32.7867 42.76 32.3221 43.6892L29.5529 49.2275C29.3162 49.7009 28.8323 50 28.3029 50C27.264 50 26.5883 48.9067 27.0529 47.9775Z" fill="white"/>
  </symbol>

  <symbol id="rain-thunder" viewBox="0 0 26 26" fill="none" xmlns="http://www.w3.org/2000/svg">
    <path d="M15.9016 18.2042H18.9631C21.2243 18.2042 23.0574 16.3711 23.0574 14.1099C23.0574 12.1896 21.7353 10.578 19.9516 10.1358C19.9748 9.92838 19.9867 9.71753 19.9867 9.50391C19.9867 6.39478 17.4663 3.87433 14.3571 3.87433C11.7783 3.87433 9.60451 5.60827 8.93795 7.97388C8.86826 7.97036 8.79811 7.96857 8.72754 7.96857C6.46636 7.96857 4.6333 9.80162 4.6333 12.0628C4.6333 12.1209 4.63451 12.1787 4.63691 12.2363C3.44238 12.6568 2.58618 13.7951 2.58618 15.1335C2.58618 16.8294 3.96097 18.2042 5.65686 18.2042H8.57222L12.9566 10.5314C13.4774 9.62009 14.8689 9.98963 14.8689 11.0392V15.1335H15.8925C16.6784 15.1335 17.1711 15.9825 16.7812 16.6649L15.9016 18.2042Z" fill="white"/>
    <path d="M9.7511 18.2042L13.8453 11.0392V16.1571H15.8925L11.7982 23.322V18.2042H9.7511Z" fill="white"/>
  </symbol>

  <symbol id="snow-thunder-night" viewBox="0 0 24 25" fill="none" xmlns="http://www.w3.org/2000/svg">
    <g clip-path="url(#clip0_1_3215)">
      <path d="M5.00352 12.5229C4.78883 12.5984 4.58533 12.6978 4.39616 12.8177C3.5541 12.4692 2.76537 11.9509 2.0818 11.2627C-0.693935 8.49628 -0.693935 3.99915 2.0818 1.23277C2.36577 0.949044 2.66393 0.693687 2.98339 0.466702C3.51582 0.0907591 4.35351 0.72206 4.29672 1.3108C4.10504 3.33948 4.78655 5.44618 6.34835 6.9996C6.94443 7.59791 7.62087 8.06693 8.34325 8.40705C6.44656 8.72034 5 10.3679 5 12.3534C5 12.4102 5.00118 12.4667 5.00352 12.5229Z" fill="white"/>
      <path d="M10.5332 3.81509L11.06 5.56168C11.0081 5.60337 10.9569 5.64599 10.9065 5.68952L9.37123 4.64773L7.59443 5.85339L8.20922 3.81509L6.49998 2.52284L8.65511 2.46289L9.37123 0.46455L10.0874 2.46289L12.2425 2.52284L10.5332 3.81509Z" fill="white"/>
      <path d="M16.6077 2.62942L17.7157 1.79678L16.324 1.76347L15.8578 0.464556L15.3917 1.76347L14 1.79678L15.1079 2.62942L14.7093 3.94832L15.8578 3.16897L17.0063 3.94832L16.6077 2.62942Z" fill="white"/>
      <path d="M19.0089 19.3534H20C22.2091 19.3534 24 17.5625 24 15.3534C24 13.4772 22.7083 11.9028 20.9657 11.4708C20.9884 11.2681 21 11.0621 21 10.8534C21 7.81583 18.5376 5.35339 15.5 5.35339C12.9806 5.35339 10.8568 7.04743 10.2056 9.35859C10.1375 9.35514 10.0689 9.35339 10 9.35339C7.79086 9.35339 6 11.1443 6 13.3534C6 13.4102 6.00118 13.4667 6.00352 13.5229C4.83649 13.9337 4 15.0459 4 16.3534C4 18.0102 5.34315 19.3534 7 19.3534H11.8482L16.1318 11.8573C16.6405 10.9669 18 11.3279 18 12.3534V16.3534H19C19.7678 16.3534 20.2492 17.1829 19.8682 17.8495L19.0089 19.3534Z" fill="white"/>
      <path d="M13 19.3534L17 12.3534V17.3534H19L15 24.3534V19.3534H13Z" fill="white"/>
      <path d="M11.5517 24.3534H10.4483L10.5586 23.1312L9.55172 23.8395L9 22.8673L10.1034 22.3534L9 21.8395L9.55172 20.8673L10.5586 21.5756L10.4483 20.3534H11.5517L11.4414 21.5756L12.4483 20.8673L13 21.8395L11.8966 22.3534L13 22.8673L12.4483 23.8395L11.4414 23.1312L11.5517 24.3534Z" fill="white"/>
    </g>
    <defs>
      <clipPath id="clip0_1_3215">
        <rect width="24" height="24" fill="white" transform="translate(0 0.353394)"/>
      </clipPath>
    </defs>
  </symbol>

  <symbol id="thunder-night" viewBox="0 0 25 26" fill="none" xmlns="http://www.w3.org/2000/svg">
    <g clip-path="url(#clip0_1_3191)">
      <path d="M4.84739 13.4909C5.04101 13.3682 5.24931 13.2665 5.46906 13.1891C5.46667 13.1316 5.46546 13.0738 5.46546 13.0157C5.46546 10.9835 6.9461 9.29705 8.88747 8.97637C8.14807 8.62824 7.4557 8.14817 6.84557 7.53576C5.24698 5.94574 4.54941 3.78941 4.7456 1.71294C4.80373 1.11032 3.94631 0.464149 3.40133 0.848949C3.07435 1.08128 2.76916 1.34266 2.47851 1.63307C-0.362628 4.46462 -0.362628 9.06771 2.47851 11.8993C3.17818 12.6037 3.98549 13.1343 4.84739 13.4909Z" fill="white"/>
      <path d="M11.6683 6.06396L11.1291 4.27623L12.8786 2.95353L10.6727 2.89216L9.93967 0.846747L9.20668 2.89216L7.00078 2.95353L8.75029 4.27623L8.12102 6.36255L9.93967 5.12848L11.5111 6.19481C11.5627 6.15027 11.6151 6.10664 11.6683 6.06396Z" fill="white"/>
      <path d="M18.4808 2.21036L17.3467 3.06262L17.7547 4.41259L16.5791 3.61488L15.4036 4.41259L15.8115 3.06262L14.6775 2.21036L16.102 2.17627L16.5791 0.846752L17.0563 2.17627L18.4808 2.21036Z" fill="white"/>
      <path d="M20.8189 20.1806H17.7573L18.6369 18.6413C19.0268 17.959 18.5341 17.1099 17.7482 17.1099H16.7246V13.0157C16.7246 11.9661 15.3331 11.5965 14.8124 12.5079L10.4279 20.1806H7.51258C5.81669 20.1806 4.4419 18.8058 4.4419 17.1099C4.4419 15.7716 5.29809 14.6332 6.49263 14.2127C6.49023 14.1552 6.48902 14.0974 6.48902 14.0393C6.48902 11.7781 8.32207 9.94501 10.5833 9.94501C10.6538 9.94501 10.724 9.9468 10.7937 9.95033C11.4602 7.58472 13.634 5.85077 16.2128 5.85077C19.322 5.85077 21.8424 8.37122 21.8424 11.4804C21.8424 11.694 21.8305 11.9048 21.8074 12.1123C23.591 12.5545 24.9131 14.166 24.9131 16.0864C24.9131 18.3476 23.08 20.1806 20.8189 20.1806Z" fill="white"/>
      <path d="M11.6068 20.1806H13.6539V25.2984L17.7482 18.1335H15.7011V13.0157L11.6068 20.1806Z" fill="white"/>
    </g>
    <defs>
      <clipPath id="clip0_1_3191">
        <rect width="24.5654" height="24.5654" fill="white" transform="translate(0.347656 0.732971)"/>
      </clipPath>
    </defs>
  </symbol>
</svg>


